# xmcd
#
# Track frame offsets:
#	150
#	16733
#	32944
#	51096
#	69266
#	92448
#
# Disc length: 1438 seconds
#
# Revision: 1
# Processed by: cddbd v1.5.2PL0 Copyright (c) Steve Scherf et al.
# Submitted via: audiograbber 1.83.01
#
DISCID=3e059c06
DTITLE=Blake Shelton - Blake Shelton Live
DYEAR=2017
DGENRE=Country
TTITLE0=All About Tonight
TTITLE1=Honey Bee
TTITLE2=Ol' Red
TTITLE3=Home
TTITLE4=Boys 'Round Here (feat. Pistol Annies)
TTITLE5=A Guy With a Girl
EXTD=
EXTT0=
EXTT1=
EXTT2=
EXTT3=
EXTT4=
EXTT5=
PLAYORDER=
